# xmcd CD database file
#
# Track frame offsets:
#	150
#	13950
#	39034
#	54822
#	77272
#	93555
#	122406
#	140507
#	158506
#	181888
#	198269
#	219153
#	243850
#
# Disc length: 3873 seconds
#
# Revision: 0
# Processed by: cddbd v1.5.2PL0 Copyright (c) Steve Scherf et al.
# Submitted via: CDex 1.51
#
DISCID=900f1f0d
DTITLE=Cornet Chop Suey - Wabash Blues
DYEAR=2004
DGENRE=Jazz
TTITLE0=Get Happy
TTITLE1=Wabash Blues
TTITLE2=Oooh! Look-A There, Ain't She Pretty?
TTITLE3=Midnight in Moscow
TTITLE4=Panama
TTITLE5=St. James Infirmary Blues
TTITLE6=The Fish Vendor
TTITLE7=Ice Cream
TTITLE8=Amazing Grace
TTITLE9=Sun Valley Boogie Woogie
TTITLE10=Blue Skies
TTITLE11=Georgia On My Mind
TTITLE12=West Side Story Medley
EXTD=YEAR: 2004
EXTT0=
EXTT1=
EXTT2=
EXTT3=
EXTT4=
EXTT5=
EXTT6=
EXTT7=
EXTT8=
EXTT9=
EXTT10=
EXTT11=
EXTT12=
PLAYORDER=
